<svg width="488" height="488" viewBox="0 0 488 488" fill="none" xmlns="http://www.w3.org/2000/svg">
<g clip-path="url(#clip0)">
<path d="M347.658 0H59.658C28.747 0.04 3.69799 25.089 3.65799 56V343.336C3.69799 374.247 28.747 399.296 59.658 399.336H147.658V383.336H59.658C37.578 383.31 19.684 365.416 19.658 343.336V208H71.034C75.775 207.653 79.338 203.529 78.991 198.787C78.924 197.873 78.712 196.975 78.362 196.128C71.252 179.948 78.604 161.068 94.784 153.958C110.964 146.848 129.844 154.2 136.954 170.38C140.559 178.584 140.559 187.924 136.954 196.128C134.978 200.262 136.728 205.215 140.862 207.191C141.931 207.702 143.098 207.978 144.282 208.001H195.658V256.001C193.015 255.551 190.339 255.329 187.658 255.337C161.148 255.328 139.651 276.811 139.641 303.32C139.634 322.419 150.951 339.704 168.458 347.337L174.858 332.681C158.652 325.631 151.229 306.779 158.278 290.573C163.364 278.88 174.907 271.323 187.658 271.337C192.067 271.336 196.427 272.257 200.458 274.041C204.507 275.808 209.223 273.958 210.99 269.909C211.43 268.901 211.657 267.813 211.658 266.713V208H252.338C251.883 210.642 251.655 213.319 251.658 216C251.706 238.794 267.735 258.43 290.058 263.04L293.258 247.368C278.376 244.289 267.691 231.197 267.658 216C267.657 211.591 268.578 207.231 270.362 203.2C272.129 199.151 270.279 194.435 266.23 192.668C265.222 192.228 264.134 192.001 263.034 192H211.658V151.32C214.3 151.775 216.977 152.003 219.658 152C246.168 152 267.658 130.51 267.658 104C267.658 77.49 246.168 56 219.658 56C216.977 55.997 214.3 56.225 211.658 56.68V16H347.658C369.738 16.026 387.632 33.92 387.658 56V192H336.282C331.864 192.002 328.284 195.586 328.286 200.004C328.287 201.104 328.514 202.192 328.954 203.2C330.738 207.231 331.659 211.591 331.658 216H347.658C347.661 213.319 347.433 210.642 346.978 208H395.658C400.076 208 403.658 204.418 403.658 200V56C403.618 25.089 378.569 0.04 347.658 0ZM219.658 72C237.331 72 251.658 86.327 251.658 104C251.658 121.673 237.331 136 219.658 136C215.249 136.001 210.889 135.08 206.858 133.296C202.809 131.529 198.093 133.379 196.326 137.428C195.886 138.436 195.659 139.524 195.658 140.624V191.336H155.034C155.435 188.911 155.643 186.458 155.658 184C155.658 183.856 155.658 183.728 155.658 183.584C155.658 183.44 155.658 183.416 155.658 183.336C155.658 156.826 134.168 135.336 107.658 135.336C81.148 135.336 59.658 156.826 59.658 183.336C59.658 183.416 59.658 183.504 59.658 183.584C59.658 183.664 59.658 183.856 59.658 184C59.673 186.458 59.881 188.911 60.282 191.336H19.658V56C19.684 33.92 37.578 16.026 59.658 16H195.658V67.376C195.66 71.794 199.244 75.374 203.662 75.372C204.762 75.371 205.85 75.144 206.858 74.704C210.889 72.92 215.249 71.999 219.658 72Z" fill="white"/>
<path d="M466.546 343.856L399.29 297.544L373.458 228.528C371.917 224.387 367.311 222.28 363.17 223.821C363.022 223.876 362.875 223.936 362.73 224L310.73 247C306.832 248.721 304.968 253.196 306.49 257.176C307.354 259.416 308.162 261.112 309.018 262.872C309.874 264.632 310.666 266.28 311.634 268.88C317.844 285.473 309.483 303.967 292.922 310.264C276.369 316.455 257.931 308.056 251.739 291.502C250.186 287.35 249.513 282.921 249.762 278.496C249.994 274.084 246.605 270.319 242.193 270.087C241.087 270.029 239.982 270.201 238.946 270.592L183.362 291.528C179.235 293.083 177.145 297.685 178.69 301.816L198.642 355.12C195.997 355.602 193.4 356.319 190.882 357.264C165.987 366.541 153.327 394.243 162.604 419.138C171.881 444.033 199.583 456.693 224.478 447.416C227.041 446.461 229.518 445.289 231.882 443.912L246.186 482.12C247.736 486.258 252.346 488.355 256.484 486.805C256.489 486.803 256.493 486.801 256.498 486.8L335.762 456.936C340.741 467.638 349.903 475.819 361.098 479.56L366.154 464.36C359.56 462.138 354.08 457.455 350.858 451.288L374.978 442.208C382.901 464.493 404.007 479.367 427.658 479.336V463.336C405.623 463.201 387.793 445.371 387.658 423.336C387.658 421.214 386.814 419.18 385.314 417.68L357.458 389.824C353.328 385.658 352.862 379.1 356.362 374.392C358.4 371.641 361.546 369.927 364.962 369.704C368.383 369.416 371.752 370.676 374.146 373.136L430.002 428.992L441.314 417.68L424.786 401.152C428.858 388.975 428.607 375.766 424.074 363.752L409.082 323.712L457.426 357C463.834 361.498 467.652 368.835 467.658 376.664V480H483.658V376.664C483.647 363.591 477.26 351.346 466.546 343.856ZM409.09 369.36C411.3 375.234 412.1 381.544 411.426 387.784L385.458 361.824C374.739 350.831 357.139 350.61 346.146 361.328C335.153 372.047 334.932 389.647 345.65 400.64C345.813 400.807 345.978 400.973 346.146 401.136L371.45 426.44L258.394 469.024L243.146 428.28C242.197 425.748 240.033 423.868 237.394 423.28C236.824 423.154 236.242 423.089 235.658 423.088C233.565 423.086 231.555 423.905 230.058 425.368C217.212 437.505 196.958 436.93 184.821 424.083C172.684 411.237 173.259 390.983 186.106 378.846C189.128 375.991 192.676 373.753 196.554 372.255C199.101 371.311 201.761 370.709 204.466 370.463C206.13 370.259 207.808 370.203 209.482 370.295C213.894 370.526 217.659 367.137 217.89 362.725C217.948 361.628 217.779 360.531 217.394 359.503L196.498 303.711L234.594 289.367C239.594 315.401 264.752 332.452 290.786 327.453C293.446 326.942 296.058 326.207 298.594 325.255C323.401 315.843 335.94 288.156 326.65 263.303C325.914 261.335 325.25 259.775 324.61 258.383L361.41 242.087L409.09 369.36Z" fill="white"/>
</g>
<defs>
<clipPath id="clip0">
<rect width="487.316" height="487.316" fill="white"/>
</clipPath>
</defs>
</svg>
