<svg width="512" height="512" viewBox="0 0 512 512" fill="none" xmlns="http://www.w3.org/2000/svg">
<g clip-path="url(#clip0)">
<path d="M278.35 482.537C274.189 482.537 270.816 479.163 270.816 475.002V454.966C270.816 452.097 268.481 449.762 265.611 449.762H245.383C242.514 449.762 240.179 452.097 240.179 454.966V475.002C240.179 479.163 236.805 482.537 232.644 482.537C228.483 482.537 225.109 479.163 225.109 475.002V454.966C225.109 443.788 234.204 434.692 245.383 434.692H265.611C276.79 434.692 285.885 443.788 285.885 454.966V475.002C285.885 479.163 282.513 482.537 278.35 482.537Z" fill="white"/>
<path d="M327.943 207.104C325.467 203.759 320.748 203.057 317.403 205.532C314.059 208.008 313.355 212.727 315.831 216.071L353.247 266.606C357.409 272.227 357.108 280.693 352.562 285.881L312.25 331.885H198.745L158.434 285.881C153.888 280.693 153.586 272.227 157.749 266.606L232.033 166.276V223.444C222.617 230.682 217.112 241.751 217.112 253.833C217.112 274.999 234.332 292.219 255.498 292.219C276.664 292.219 293.883 274.999 293.883 253.833C293.883 242.295 288.748 231.52 279.967 224.261V167.633L296.512 189.98C298.989 193.325 303.708 194.027 307.052 191.552C310.397 189.075 311.1 184.357 308.624 181.012L276.305 137.36C271.217 130.489 263.633 126.547 255.499 126.547C247.364 126.547 239.78 130.489 234.692 137.36L145.638 257.64C137.286 268.92 137.915 285.331 147.101 295.814L180.72 334.179C172.325 338.093 166.49 346.607 166.49 356.464V392.411C166.49 403.416 173.761 412.754 183.751 415.876L185.806 475.265C185.947 479.336 189.29 482.54 193.332 482.54C193.421 482.54 193.509 482.539 193.597 482.536C197.757 482.391 201.011 478.904 200.867 474.745L198.868 416.99H313.134L311.135 474.745C310.991 478.904 314.246 482.391 318.405 482.536C318.493 482.539 318.581 482.54 318.67 482.54C322.711 482.54 326.055 479.336 326.196 475.265L328.263 415.532C337.726 412.111 344.507 403.039 344.507 392.411V356.464C344.507 346.607 338.672 338.093 330.278 334.179L363.896 295.814C373.083 285.332 373.711 268.92 365.36 257.64L327.943 207.104ZM255.498 141.616C258.855 141.616 261.944 143.289 264.192 146.326L264.897 147.278V228.048C264.897 230.582 266.172 232.948 268.29 234.342C274.879 238.678 278.814 245.965 278.814 253.831C278.814 266.687 268.354 277.147 255.498 277.147C242.641 277.147 232.182 266.687 232.182 253.831C232.182 245.592 236.399 238.125 243.464 233.857C245.722 232.492 247.103 230.046 247.103 227.408V145.961C249.323 143.164 252.283 141.616 255.498 141.616V141.616ZM329.438 392.409C329.438 397.651 325.172 401.917 319.93 401.917H191.067C185.823 401.917 181.559 397.651 181.559 392.409V356.462C181.559 351.219 185.824 346.954 191.067 346.954H319.93C325.173 346.954 329.438 351.219 329.438 356.462V392.409Z" fill="white"/>
<path d="M105.551 209.416C106.541 185.543 113.18 162.17 124.932 141.458C126.985 137.839 125.716 133.24 122.097 131.187C118.477 129.132 113.879 130.402 111.825 134.022C98.801 156.975 91.4781 182.891 90.4695 209.342C77.4663 212.648 67.8197 224.452 67.8197 238.47C67.8197 255.041 81.3011 268.522 97.8717 268.522C114.442 268.522 127.924 255.041 127.924 238.47C127.924 224.553 118.414 212.818 105.551 209.416V209.416ZM97.8717 253.452C89.6105 253.452 82.8894 246.731 82.8894 238.47C82.8894 230.209 89.6105 223.488 97.8717 223.488C106.133 223.488 112.854 230.209 112.854 238.47C112.854 246.731 106.133 253.452 97.8717 253.452Z" fill="white"/>
<path d="M496.046 29.4633H471.832C463.036 29.4633 455.878 36.6204 455.878 45.417V49.9892H284.061V45.417C284.061 36.6204 276.904 29.4633 268.107 29.4633H243.893C235.096 29.4633 227.939 36.6204 227.939 45.417V49.9892H56.1216V45.417C56.1216 36.6204 48.9645 29.4633 40.1678 29.4633H15.9538C7.1571 29.4633 0 36.6204 0 45.417V69.631C0 78.4277 7.1571 85.5848 15.9538 85.5848H40.1678C48.9645 85.5848 56.1216 78.4277 56.1216 69.631V65.0589H186.924C166.005 74.6673 147.121 88.6249 131.615 106.24C128.865 109.364 129.167 114.125 132.292 116.875C133.723 118.134 135.499 118.754 137.268 118.754C139.358 118.754 141.437 117.89 142.926 116.198C165.207 90.8883 195.14 73.8737 227.939 67.684V69.632C227.939 78.4287 235.096 85.5858 243.893 85.5858H268.107C276.904 85.5858 284.061 78.4287 284.061 69.632V67.683C352.464 80.5716 403.571 139.559 406.458 209.415C393.591 212.814 384.076 224.551 384.076 238.471C384.076 255.042 397.558 268.523 414.128 268.523C430.699 268.523 444.18 255.042 444.18 238.471C444.18 224.455 434.535 212.652 421.533 209.344C419.124 145.962 380.628 90.6312 325.081 65.0609H455.878V69.633C455.878 78.4297 463.036 85.5868 471.832 85.5868H496.046C504.843 85.5868 512 78.4297 512 69.633V45.417C512 36.6204 504.843 29.4633 496.046 29.4633V29.4633ZM41.0519 69.631C41.0519 70.1183 40.655 70.5151 40.1678 70.5151H15.9538C15.4665 70.5151 15.0697 70.1183 15.0697 69.631V45.417C15.0697 44.9298 15.4665 44.533 15.9538 44.533H40.1678C40.655 44.533 41.0519 44.9298 41.0519 45.417V69.631ZM429.111 238.469C429.111 246.73 422.39 253.451 414.128 253.451C405.867 253.451 399.146 246.73 399.146 238.469C399.146 230.208 405.867 223.487 414.128 223.487C422.39 223.487 429.111 230.208 429.111 238.469ZM268.991 69.631C268.991 70.1183 268.594 70.5151 268.107 70.5151H243.893C243.406 70.5151 243.009 70.1183 243.009 69.631V45.417C243.009 44.9298 243.406 44.533 243.893 44.533H268.107C268.594 44.533 268.991 44.9298 268.991 45.417V69.631ZM496.93 69.631C496.93 70.1183 496.534 70.5151 496.046 70.5151H471.832C471.345 70.5151 470.948 70.1183 470.948 69.631V45.417C470.948 44.9298 471.345 44.533 471.832 44.533H496.046C496.534 44.533 496.93 44.9298 496.93 45.417V69.631Z" fill="white"/>
</g>
<defs>
<clipPath id="clip0">
<rect width="512" height="512" fill="white"/>
</clipPath>
</defs>
</svg>
